<svg width="32" height="32" viewBox="0 0 32 32" fill="none" xmlns="http://www.w3.org/2000/svg">
<path d="M21.2728 0.629542C15.3932 -0.264628 9.86919 3.55953 8.68353 9.34188C8.47259 10.3752 8.15515 11.2117 7.71563 11.8988C7.67657 11.9608 7.64141 12.0258 7.61114 12.0927L5.48107 16.8329C5.27886 17.2837 5.31109 17.8042 5.56701 18.2262C5.82385 18.649 6.27117 18.9176 6.7644 18.946L9.1914 19.0837V21.7597C9.1914 23.087 10.2706 24.1662 11.5969 24.1662H12.9692V27.3658C12.9692 28.194 13.6411 28.8659 14.4693 28.8659H24.5173C25.3455 28.8659 26.0174 28.194 26.0174 27.3658C26.0174 24.7542 26.8417 20.7928 28.6818 17.8277C28.6827 17.8267 28.6827 17.8257 28.6837 17.8247C30.3675 15.3694 30.9779 12.3764 30.4007 9.38876C30.4007 9.38827 30.4007 9.38827 30.4007 9.38827C29.5236 4.84871 25.8553 1.32882 21.2728 0.629542ZM26.1844 16.1639C26.16 16.1991 26.1376 16.2357 26.1161 16.2728C24.4821 18.9167 23.3511 22.5391 23.0796 25.8656H15.9695V23.5714C15.9695 22.2451 14.8903 21.1659 13.563 21.1659H12.1917V18.5221C12.1917 17.2475 11.1946 16.1927 9.92192 16.12L9.11131 16.0741L10.3048 13.418C10.9142 12.437 11.3459 11.2991 11.6233 9.94398C12.4877 5.72871 16.535 2.93934 20.8196 3.59565C24.0992 4.09571 26.8271 6.71223 27.4551 9.95716C27.8809 12.1649 27.4297 14.3693 26.1844 16.1639ZM4.5874 23.4015C4.5874 26.102 6.78491 28.2995 9.48541 28.2995C10.3136 28.2995 10.9855 27.6275 10.9855 26.7993C10.9855 25.9711 10.3136 25.2992 9.48541 25.2992C8.43939 25.2992 7.5877 24.4475 7.5877 23.4015C7.5877 22.5733 6.91576 21.9013 6.08758 21.9013C5.25933 21.9013 4.5874 22.5733 4.5874 23.4015Z" fill="#F1BF5A"/>
<path d="M2.88739 23.2305C2.0592 23.2305 1.38721 23.9025 1.38721 24.7306C1.38721 28.4634 4.42371 31.4999 8.15552 31.4999C8.98377 31.4999 9.6557 30.828 9.6557 29.9998C9.6557 29.1716 8.98376 28.4996 8.15552 28.4996C6.07819 28.4996 4.38758 26.809 4.38758 24.7307C4.38757 23.9025 3.71563 23.2305 2.88739 23.2305Z" fill="#F1BF5A"/>
</svg>
