<svg width="48" height="48" viewBox="0 0 48 48" fill="none" xmlns="http://www.w3.org/2000/svg">
<rect width="48" height="48" rx="10" fill="#F4EBFF"/>
<path d="M11.4333 28.3083C11.1941 28.3083 11 28.1229 11 27.8945V13.2414C11 12.557 11.5833 12 12.3 12H35.7C36.4167 12 37 12.557 37 13.2414V17.3063C37 17.5347 36.8059 17.7201 36.5667 17.7201C36.3275 17.7201 36.1333 17.5347 36.1333 17.3063V13.2414C36.1333 13.0138 35.9383 12.8276 35.7 12.8276H12.3C12.0617 12.8276 11.8667 13.0138 11.8667 13.2414V27.8945C11.8667 28.1229 11.6725 28.3083 11.4333 28.3083Z" fill="#FF7B00" stroke="#FF7B00" stroke-width="0.6"/>
<path d="M23.9998 36H19.2331C18.9939 36 18.7998 35.8146 18.7998 35.5862C18.7998 35.3578 18.9939 35.1724 19.2331 35.1724H20.0998C20.8165 35.1724 21.3998 34.6154 21.3998 33.931V31.862C21.3998 31.6336 21.5939 31.4482 21.8331 31.4482C22.0723 31.4482 22.2665 31.6336 22.2665 31.862V33.931C22.2665 34.3969 22.1044 34.8264 21.8323 35.1724H23.9998C24.239 35.1724 24.4331 35.3578 24.4331 35.5862C24.4331 35.8146 24.239 36 23.9998 36Z" fill="#FF7B00" stroke="#FF7B00" stroke-width="0.6"/>
<path d="M25.0111 31.8621H12.3C11.5833 31.8621 11 31.3051 11 30.6207V28.1379C11 27.9095 11.1941 27.7241 11.4333 27.7241H25.0111C25.2503 27.7241 25.4444 27.9095 25.4444 28.1379C25.4444 28.3663 25.2503 28.5517 25.0111 28.5517H11.8667V30.6207C11.8667 30.8483 12.0617 31.0345 12.3 31.0345H25.0111C25.2503 31.0345 25.4444 31.2198 25.4444 31.4483C25.4444 31.6767 25.2503 31.8621 25.0111 31.8621Z" fill="#FF7B00" stroke="#FF7B00" stroke-width="0.6"/>
<path d="M28.7668 17.7929H33.1002C33.3394 17.7929 33.5335 17.6075 33.5335 17.3791C33.5335 17.1507 33.3394 16.9653 33.1002 16.9653H28.7668C28.5276 16.9653 28.3335 17.1507 28.3335 17.3791C28.3335 17.6075 28.5276 17.7929 28.7668 17.7929Z" fill="#FF7B00" stroke="#FF7B00" stroke-width="0.6"/>
<path d="M30.5002 34.3447H31.3669C31.6061 34.3447 31.8002 34.1593 31.8002 33.9309C31.8002 33.7025 31.6061 33.5171 31.3669 33.5171H30.5002C30.261 33.5171 30.0669 33.7025 30.0669 33.9309C30.0669 34.1593 30.261 34.3447 30.5002 34.3447Z" fill="#FF7B00" stroke="#FF7B00" stroke-width="0.6"/>
<path fill-rule="evenodd" clip-rule="evenodd" d="M27.0334 36.0002H34.8334C36.0285 36.0002 37 35.0725 37 33.9312V17.3795C37 16.2383 36.0285 15.3105 34.8334 15.3105H27.0334C25.8382 15.3105 24.8667 16.2383 24.8667 17.3795V33.9312C24.8667 35.0725 25.8382 36.0002 27.0334 36.0002ZM25.7334 17.3795C25.7334 16.6951 26.3166 16.1381 27.0334 16.1381H34.8334C35.5501 16.1381 36.1334 16.6951 36.1334 17.3795V33.9312C36.1334 34.6157 35.5501 35.1726 34.8334 35.1726H27.0334C26.3166 35.1726 25.7334 34.6157 25.7334 33.9312V17.3795Z" fill="#FF7B00"/>
<path d="M34.8334 35.7002H27.0334V36.3002H34.8334V35.7002ZM36.7 33.9312C36.7 34.8939 35.876 35.7002 34.8334 35.7002V36.3002C36.181 36.3002 37.3 35.2511 37.3 33.9312H36.7ZM36.7 17.3795V33.9312H37.3V17.3795H36.7ZM34.8334 15.6105C35.876 15.6105 36.7 16.4169 36.7 17.3795H37.3C37.3 16.0597 36.181 15.0105 34.8334 15.0105V15.6105ZM27.0334 15.6105H34.8334V15.0105H27.0334V15.6105ZM25.1667 17.3795C25.1667 16.4169 25.9907 15.6105 27.0334 15.6105V15.0105C25.6857 15.0105 24.5667 16.0597 24.5667 17.3795H25.1667ZM25.1667 33.9312V17.3795H24.5667V33.9312H25.1667ZM27.0334 35.7002C25.9907 35.7002 25.1667 34.8939 25.1667 33.9312H24.5667C24.5667 35.2511 25.6857 36.3002 27.0334 36.3002V35.7002ZM27.0334 15.8381C26.1641 15.8381 25.4334 16.5165 25.4334 17.3795H26.0334C26.0334 16.8737 26.4691 16.4381 27.0334 16.4381V15.8381ZM34.8334 15.8381H27.0334V16.4381H34.8334V15.8381ZM36.4334 17.3795C36.4334 16.5165 35.7026 15.8381 34.8334 15.8381V16.4381C35.3976 16.4381 35.8334 16.8737 35.8334 17.3795H36.4334ZM36.4334 33.9312V17.3795H35.8334V33.9312H36.4334ZM34.8334 35.4726C35.7026 35.4726 36.4334 34.7942 36.4334 33.9312H35.8334C35.8334 34.4371 35.3976 34.8726 34.8334 34.8726V35.4726ZM27.0334 35.4726H34.8334V34.8726H27.0334V35.4726ZM25.4334 33.9312C25.4334 34.7942 26.1641 35.4726 27.0334 35.4726V34.8726C26.4691 34.8726 26.0334 34.4371 26.0334 33.9312H25.4334ZM25.4334 17.3795V33.9312H26.0334V17.3795H25.4334Z" fill="#FF7B00"/>
</svg>
