<svg width="48" height="48" viewBox="0 0 48 48" fill="none" xmlns="http://www.w3.org/2000/svg">
<rect width="47.7143" height="48" rx="10" fill="#FCE7F6"/>
<path d="M11.625 12C11.2798 12 11 12.2612 11 12.5834V34.9683C11 35.2543 11.1187 35.5274 11.3278 35.7225C11.5188 35.9008 11.7704 36 12.0317 36H36.0892C36.4344 36 36.7143 35.7388 36.7143 35.4166C36.7143 35.0944 36.4344 34.8333 36.0892 34.8333H14.2501C13.1455 34.8333 12.2501 33.9378 12.2501 32.8333V12.5834C12.2501 12.2612 11.9702 12 11.625 12Z" fill="#C11574"/>
<path fill-rule="evenodd" clip-rule="evenodd" d="M16.6251 27.1477C15.494 27.1356 14.5042 27.8548 14.2395 28.8813C13.9747 29.9077 14.5054 30.9686 15.5185 31.4382C16.5315 31.9079 17.7579 31.6615 18.4742 30.8444C19.1905 30.0273 19.2065 28.8566 18.5127 28.0227L21.4379 24.0208C21.6918 24.1012 21.9575 24.1445 22.2255 24.1491C22.9104 24.1551 23.5654 23.8876 24.0256 23.4141L26.6258 25.1409C26.5858 25.3095 26.5649 25.4815 26.5633 25.6542C26.5633 26.8914 27.6379 27.8944 28.9635 27.8944C30.289 27.8944 31.3636 26.8914 31.3636 25.6542C31.3617 25.1474 31.1718 24.6567 30.8261 24.2658L33.6138 20.2872C34.7488 20.6212 35.9734 20.1197 36.4786 19.114C36.9837 18.1083 36.6135 16.9089 35.6124 16.3082C34.6113 15.7076 33.2885 15.8911 32.518 16.7376C31.7474 17.584 31.767 18.8321 32.5637 19.6572L29.7885 23.5774C29.5128 23.4798 29.2208 23.4284 28.926 23.4257C28.2706 23.4254 27.6433 23.6739 27.1883 24.1141L24.5757 22.4107C24.5886 22.2592 24.5886 22.1071 24.5757 21.9556C24.6265 20.9434 23.9429 20.0253 22.9087 19.7168C21.8744 19.4084 20.7471 19.7864 20.1596 20.6387C19.5721 21.4909 19.6709 22.6051 20.4004 23.3557L17.5127 27.311C17.231 27.2031 16.9295 27.1477 16.6251 27.1477ZM34.3139 17.102C34.949 17.102 35.4639 17.5826 35.4639 18.1754C35.4639 18.7682 34.949 19.2488 34.3139 19.2488C33.6787 19.2488 33.1638 18.7682 33.1638 18.1754C33.1638 17.5826 33.6787 17.102 34.3139 17.102ZM30.076 25.6543C30.076 25.0614 29.5611 24.5808 28.926 24.5808C28.2908 24.5808 27.7759 25.0614 27.7759 25.6543C27.7759 26.2471 28.2908 26.7277 28.926 26.7277C29.5611 26.7277 30.076 26.2471 30.076 25.6543ZM22.2254 20.8356C22.8606 20.8356 23.3755 21.3161 23.3755 21.909C23.3755 22.5018 22.8606 22.9824 22.2254 22.9824C21.5903 22.9824 21.0754 22.5018 21.0754 21.909C21.0754 21.3161 21.5903 20.8356 22.2254 20.8356ZM15.5604 29.793C15.7368 30.197 16.1577 30.4611 16.6251 30.4612C17.2507 30.4613 17.7616 29.9948 17.7752 29.4111C17.7854 28.975 17.5117 28.5765 17.0828 28.403C16.654 28.2294 16.1553 28.3154 15.8211 28.6205C15.487 28.9256 15.384 29.389 15.5604 29.793Z" fill="#C11574"/>
</svg>
